<svg width="550" height="530" viewBox="0 0 550 530" fill="none" xmlns="http://www.w3.org/2000/svg">
<path d="M271.612 149.347C299.944 148.133 314.11 148.133 341.825 149.347V134.169L394.801 135.848C407.362 135.417 410.191 140.24 410.806 117.778C410.939 112.928 410.837 108.928 410.467 105.636C409.123 93.6781 404.236 91.0652 394.177 91.0652C394.177 91.0652 302.064 89.9254 271.612 91.0652L271.181 91.0813C240.987 92.2113 215.688 98.434 186.38 105.931C133.111 119.557 112.094 180.309 112.094 221.498C128.401 177.331 143.86 162.407 189.9 148.781C236.475 134.996 271.612 134.169 271.612 134.169V149.347Z" fill="#EAA83D"/>
<path d="M112.094 221.498C112.094 180.309 133.111 119.557 186.38 105.931C215.688 98.434 240.987 92.2113 271.181 91.0813L271.612 91.0652C302.064 89.9254 394.177 91.0652 394.177 91.0652C404.236 91.0652 409.123 93.6781 410.467 105.636C410.467 105.636 511.199 30.3551 512.431 19.4273C513.663 8.49947 472.634 4.05123 454.536 1.82128C434.827 -0.607094 399.105 0.607102 399.105 0.607102L367.694 34.6048V0L256.215 0L245.745 47.354L219.877 13.9633C219.877 13.9633 172.584 24.376 145.353 38.2474C120.091 51.1157 86.2263 80.1374 86.2263 80.1374L114.558 101.993H64.6697C64.6697 101.993 32.0269 158.454 32.0269 180.309L32.0269 268.946L62.2061 253.769L32.0269 296.873L32.0269 429.221C30.1791 460.183 22.1724 482.646 0 514.215C0 514.215 6.15895 530 32.0269 530H48.6563C110.247 491.753 112.094 451.077 112.094 420.114C112.094 420.114 112.094 299.063 112.094 221.498Z" fill="#1D2D7E"/>
<path d="M527.212 238.591V140.24H457.615L450.224 162.703C429.283 157.239 384.437 151.391 341.825 149.347C314.11 148.133 299.944 148.133 271.612 149.347C236.809 152.596 219.876 154.204 184.154 168.167C148.432 182.13 118.253 205.807 118.253 245.269C118.253 284.731 147.064 302.627 185.662 316.895C224.261 331.163 250.056 334.513 292.553 339.977C324.856 344.13 375.7 353.94 375.7 368.511C375.7 383.081 341.808 385.677 309.165 385.677C276.522 385.677 214.333 380.653 184.154 353.94H118.253L118.253 461.397H184.154L200.784 443.184C245.128 454.719 298.599 454.494 347.368 453.505C396.138 452.516 434.826 448.648 471.164 440.149C507.503 431.649 550 404.937 550 353.94C550 302.944 513.046 280.481 471.164 268.946C429.283 257.411 373.236 250.126 347.368 245.269C321.5 240.412 285.778 233.127 285.778 223.413C285.778 213.7 323.219 213.915 347.239 213.915C428.539 213.915 471.164 238.591 471.164 238.591H527.212Z" fill="#3451B9"/>
</svg>
